<?xml version="1.0" standalone="no"?>
<!DOCTYPE svg PUBLIC "-//W3C//DTD SVG 20010904//EN"
 "http://www.w3.org/TR/2001/REC-SVG-20010904/DTD/svg10.dtd">
<svg version="1.0" xmlns="http://www.w3.org/2000/svg"
 width="988.000000pt" height="988.000000pt" viewBox="0 0 988.000000 988.000000"
 preserveAspectRatio="xMidYMid meet">
<metadata>
Created by potrace 1.14, written by Peter Selinger 2001-2017
</metadata>
<g transform="translate(0.000000,988.000000) scale(0.100000,-0.100000)"
fill="#000000" stroke="none">
<path d="M0 8627 l0 -1133 1133 0 1132 1 0 1133 1 1132 -1133 0 -1133 0 0
-1133z"/>
<path d="M2459 9743 c-1 -23 -1 -2225 0 -2239 1 -7 328 -10 1084 -10 1051 0
1082 0 1087 18 3 11 5 520 4 1131 l0 1112 -1087 3 c-1030 2 -1087 1 -1088 -15z"/>
<path d="M4844 8628 l1 -1133 1230 0 1230 0 1 1133 0 1132 -1231 0 -1232 0 1
-1132z"/>
<path d="M7517 9753 c-2 -5 -3 -514 -3 -1133 l1 -1125 1180 0 1180 0 3 1133 2
1132 -1179 0 c-649 0 -1182 -3 -1184 -7z"/>
<path d="M4 7295 c-2 -5 -3 -516 -2 -1135 l3 -1125 1130 0 1130 0 1 1120 c1
616 0 1127 -2 1135 -3 13 -137 15 -1130 15 -742 0 -1128 -3 -1130 -10z"/>
<path d="M7527 7300 c-10 -4 -12 -247 -13 -1130 0 -619 3 -1127 7 -1130 4 -3
535 -5 1181 -5 l1173 0 3 1133 c2 902 0 1132 -10 1133 -57 4 -2332 3 -2341 -1z"/>
<path d="M4254 6669 c-6 -8 -29 -62 -52 -120 -23 -58 -47 -119 -53 -135 -7
-16 -13 -31 -13 -34 -2 -7 -165 -420 -180 -455 -23 -53 -41 -100 -41 -107 0
-3 -3 -10 -7 -14 -5 -4 -8 -16 -8 -26 0 -10 -4 -18 -10 -18 -5 0 -9 -3 -8 -7
2 -5 -10 -39 -25 -77 -15 -38 -26 -71 -23 -73 2 -3 30 -6 61 -8 56 -2 56 -2
72 34 9 20 18 44 20 54 1 10 14 42 28 71 14 29 25 59 25 67 0 8 7 22 14 32 12
15 34 17 205 17 185 0 191 -1 191 -20 0 -11 4 -28 10 -38 5 -9 24 -57 41 -107
18 -49 36 -95 41 -101 8 -11 132 -13 143 -2 3 2 -2 22 -11 44 -23 55 -36 89
-33 89 1 0 -8 20 -21 45 -13 25 -23 47 -23 50 0 3 -4 16 -9 30 -22 59 -99 257
-108 275 -10 24 -174 438 -176 445 0 3 -6 19 -12 35 -28 69 -27 68 -38 54z
m10 -321 c2 -7 7 -22 12 -33 4 -11 8 -22 9 -25 1 -3 5 -14 9 -25 15 -38 19
-50 22 -60 1 -5 18 -51 38 -102 20 -51 36 -97 36 -102 0 -7 -52 -10 -140 -10
-77 1 -140 3 -140 5 0 6 69 183 86 221 8 17 14 35 14 40 0 5 9 27 19 49 11 21
17 42 14 46 -2 5 1 8 7 8 6 0 12 -6 14 -12z"/>
<path d="M5023 6134 l2 -539 58 0 c33 0 61 3 63 6 2 4 4 149 4 323 1 174 3
316 5 316 3 0 68 -93 110 -159 30 -47 50 -77 55 -81 12 -12 50 -70 50 -77 0
-5 11 -20 25 -35 14 -15 25 -29 25 -32 0 -7 82 -126 86 -126 2 0 21 26 41 58
21 31 41 59 46 60 4 2 7 9 7 16 0 7 8 21 18 32 11 11 21 24 23 29 9 23 222
335 225 332 2 -2 4 -152 5 -333 l0 -329 60 1 c32 1 62 2 67 3 8 1 8 1049 -1
1057 -3 3 -18 -14 -34 -38 -15 -23 -34 -49 -40 -56 -7 -7 -13 -19 -13 -27 0
-7 -4 -15 -8 -17 -11 -4 -182 -257 -182 -268 0 -5 -4 -10 -9 -12 -8 -3 -136
-190 -159 -234 -7 -13 -17 -24 -23 -24 -5 0 -8 -5 -6 -11 1 -6 -3 -13 -9 -16
-10 -3 -84 97 -84 115 0 4 -9 14 -19 22 -11 7 -18 17 -15 21 2 4 -2 13 -9 21
-8 7 -40 54 -73 103 -32 50 -64 96 -71 103 -7 7 -13 19 -13 27 0 7 -4 15 -8
17 -5 2 -49 63 -98 137 -49 74 -92 139 -96 144 -3 6 -5 -232 -5 -529z"/>
<path d="M3084 6638 c-3 -4 -13 -8 -23 -8 -10 0 -49 -16 -87 -35 -132 -67
-221 -181 -259 -331 -16 -63 -21 -187 -11 -262 27 -204 188 -369 401 -409 41
-8 163 -7 200 2 17 4 35 8 40 9 18 4 90 29 100 35 6 3 15 6 22 7 6 1 23 10 36
21 l25 18 0 208 c0 204 -1 207 -22 212 -11 2 -85 3 -164 3 -132 -1 -168 -7
-143 -23 6 -3 7 -15 2 -28 -5 -12 -5 -31 -1 -42 4 -11 5 -25 3 -31 -3 -8 18
-12 69 -12 40 0 84 0 98 -1 l26 -1 -1 -102 c0 -101 0 -103 -27 -115 -56 -27
-172 -36 -248 -19 -76 17 -128 44 -175 91 -35 34 -76 90 -79 108 -2 7 -5 19
-8 27 -3 8 -9 29 -15 46 -12 35 -11 183 0 202 5 6 6 12 2 12 -3 0 2 17 10 38
9 20 16 39 15 42 0 3 14 26 30 52 30 46 98 108 118 108 6 0 12 4 14 10 2 5 12
11 23 13 11 2 29 8 40 13 34 14 211 10 255 -7 3 -1 8 -1 13 0 4 0 7 -3 7 -9 0
-6 11 -10 25 -10 14 0 25 -4 25 -10 0 -5 6 -10 14 -10 12 0 44 73 52 117 2 11
-75 49 -117 59 -11 2 -29 7 -41 11 -34 9 -238 11 -244 1z"/>
<path d="M6540 6641 c0 -4 -25 -5 -55 -3 l-55 4 -1 -34 c-3 -157 -1 -997 4
-1004 3 -5 151 -9 329 -9 l323 1 1 67 1 67 -264 0 c-232 0 -264 2 -259 15 3 8
1 15 -5 15 -6 0 -6 7 1 20 8 14 8 20 0 20 -8 0 -8 6 0 20 8 14 8 20 0 20 -7 0
-8 6 -1 18 13 25 13 25 2 54 -6 17 -7 29 -1 33 7 4 6 13 0 25 -7 13 -7 21 0
25 7 4 7 12 0 25 -7 13 -7 21 2 26 6 4 108 8 227 9 119 1 218 3 221 3 4 1 6
30 5 65 l-1 62 -220 1 c-121 0 -226 4 -232 8 -9 5 -9 13 -2 27 8 13 7 19 0 19
-8 0 -8 6 0 20 8 14 8 20 0 20 -7 0 -8 6 0 19 7 14 7 22 0 26 -6 4 -7 11 -4
17 10 15 11 69 2 74 -4 3 -3 16 2 29 6 17 6 25 -1 25 -7 0 -7 6 0 18 9 15 32
17 258 17 l248 0 2 69 c2 38 0 66 -3 63 -4 -4 -15 -2 -25 4 -11 5 -19 6 -19 2
0 -4 -25 -8 -55 -8 -30 0 -55 3 -55 6 0 4 -15 4 -32 0 -18 -4 -48 -4 -65 0
-18 3 -33 4 -33 0 0 -3 -25 -6 -55 -6 -30 0 -55 3 -55 6 0 4 -15 4 -32 0 -18
-4 -48 -4 -65 0 -18 3 -33 3 -33 0z"/>
<path d="M4565 5120 c-131 -30 -219 -139 -219 -270 0 -134 98 -249 223 -265
25 -3 46 -7 48 -9 7 -7 99 15 133 31 36 18 130 108 130 124 0 16 1 18 14 44
20 38 13 135 -15 190 -56 113 -197 183 -314 155z m155 -86 c40 -22 64 -46 86
-89 52 -99 9 -228 -93 -278 -37 -18 -114 -21 -161 -6 -70 22 -141 126 -133
194 6 47 10 66 25 97 18 37 84 90 118 95 12 2 24 6 27 9 9 8 104 -7 131 -22z"/>
<path d="M5117 5123 c-7 -13 -6 -533 1 -534 4 -1 21 -3 37 -4 l31 -3 -1 105
c0 58 3 110 7 116 4 7 44 11 111 10 l105 -2 0 27 c0 38 -15 53 -42 42 -13 -4
-28 -5 -35 0 -7 4 -28 4 -47 0 -18 -4 -35 -6 -37 -3 -3 2 -17 5 -33 6 -28 2
-28 2 -29 76 0 40 3 78 6 83 4 6 56 10 128 10 100 0 121 3 117 14 -3 8 0 14 6
14 6 0 5 8 -4 21 -12 19 -23 21 -78 20 -70 -1 -113 0 -145 3 -11 1 -29 -1 -41
-5 -11 -4 -27 -3 -36 2 -9 5 -19 6 -21 2z"/>
<path d="M2983 5003 c-3 -6 -3 -22 -1 -35 l3 -23 456 0 456 -1 -3 26 c-1 14
-2 30 -3 35 -2 15 -902 14 -908 -2z"/>
<path d="M5909 5003 c-1 -7 -1 -20 -1 -28 0 -8 0 -18 1 -23 0 -4 247 -7 549
-7 l547 0 0 35 0 35 -547 0 c-434 0 -548 -2 -549 -12z"/>
<path d="M0 3713 l0 -1133 23 0 c27 -1 2182 -1 2218 0 l25 0 -1 1128 c-1 620
-3 1129 -4 1132 0 3 -509 6 -1131 6 l-1130 0 0 -1133z"/>
<path d="M7519 4840 c-6 -24 -2 -2253 3 -2256 6 -4 2222 -7 2346 -4 9 0 12
233 12 1133 l0 1133 -1180 0 c-649 0 -1181 -3 -1181 -6z"/>
<path d="M3205 4209 c-10 -15 -12 -59 -4 -65 5 -3 6 -10 3 -16 -11 -17 -12
-118 -2 -118 5 0 6 -6 2 -12 -11 -18 -12 -108 -1 -108 4 0 5 -6 1 -12 -11 -18
-12 -108 -1 -108 4 0 5 -6 1 -12 -11 -18 -12 -108 -1 -108 4 0 5 -6 1 -12 -11
-17 -12 -98 -2 -104 5 -3 5 -11 1 -17 -10 -17 -10 -170 0 -184 6 -8 6 -13 0
-13 -10 0 -11 -96 0 -106 8 -8 666 -12 668 -4 1 3 2 31 3 62 2 44 -1 57 -13
60 -9 2 -130 4 -269 3 l-253 -1 4 23 c2 13 1 23 -2 23 -9 0 -6 233 3 248 4 7
4 12 -1 12 -4 0 -8 20 -8 45 0 25 3 45 8 45 4 0 4 8 -2 17 -5 10 -5 26 0 40 5
14 5 23 -1 23 -8 0 -5 38 5 68 2 6 1 12 -3 12 -9 0 -8 203 2 218 4 7 4 12 -1
12 -4 0 -8 21 -8 47 l0 46 -63 1 c-35 1 -66 -2 -67 -5z"/>
<path d="M4276 4212 c-15 -3 -17 -16 -16 -95 1 -51 0 -96 -1 -102 -1 -5 -1
-13 -1 -16 1 -6 2 -242 1 -281 0 -10 0 -119 1 -243 0 -124 -1 -229 -4 -233 -3
-5 -1 -14 4 -21 7 -12 53 -16 131 -12 12 1 15 11 12 53 -1 29 -5 58 -7 65 -3
7 -2 13 2 13 4 0 6 39 4 87 -1 49 -2 102 -1 118 4 111 3 245 -2 245 -3 0 -6 7
-6 15 0 8 3 15 6 15 8 0 6 143 -2 156 -3 6 -4 14 0 18 8 8 8 204 0 213 -7 7
-92 10 -121 5z"/>
<path d="M4869 4209 c-5 -3 -8 -211 -7 -504 l3 -499 58 0 c33 -1 63 2 69 5 6
4 10 83 10 213 -1 154 2 206 11 207 7 0 102 1 213 2 l200 1 0 60 -1 60 -34 7
c-19 4 -44 3 -57 -1 -12 -5 -25 -6 -28 -3 -10 10 -69 10 -89 1 -9 -5 -23 -6
-29 -2 -6 4 -51 7 -99 7 l-88 0 2 160 2 161 241 -1 240 0 0 65 -1 65 -303 1
c-167 1 -308 -2 -313 -5z"/>
<path d="M5879 4205 c-1 -5 -2 -232 -3 -502 -1 -327 2 -493 9 -494 45 -4 655
-3 674 1 21 5 24 12 24 45 -1 90 32 80 -283 80 -179 0 -281 3 -283 10 -2 9 -1
242 2 286 1 14 27 15 219 15 119 -1 228 1 241 4 22 6 25 11 25 63 1 31 -1 58
-4 58 -3 1 -109 2 -237 3 -128 1 -236 5 -240 10 -10 9 -11 289 -2 296 4 3 127
5 273 4 147 -1 269 3 272 7 3 5 0 9 -6 9 -6 0 -8 5 -4 12 11 17 11 78 1 78 -4
0 -5 5 -2 10 8 13 45 11 -343 13 -215 1 -332 -2 -333 -8z"/>
<path d="M0 1256 l0 -1134 1133 1 1132 2 1 1115 c1 613 0 1123 -3 1132 -4 16
-75 17 -1134 17 l-1129 0 0 -1133z"/>
<path d="M2459 2372 c-1 -22 -1 -2224 0 -2239 1 -16 2168 -16 2173 1 3 9 2
2206 -1 2243 -1 10 -241 12 -1086 12 -1018 0 -1085 -1 -1086 -17z"/>
<path d="M4844 1257 l1 -1132 1231 -1 1230 -2 0 1134 0 1133 -1231 0 -1232 1
1 -1133z"/>
<path d="M7517 2382 c-2 -4 -3 -513 -3 -1132 l1 -1125 1183 -2 1182 -1 0 1133
0 1134 -1180 0 c-648 0 -1181 -3 -1183 -7z"/>
</g>
</svg>
