<svg width="22" height="24" viewBox="0 0 22 24" fill="none" xmlns="http://www.w3.org/2000/svg">
<path d="M11.0391 2.58028L11.0089 0.4229C11.0039 0.0410686 10.5269 -0.143601 10.2536 0.130145L5.77726 4.60838C5.60767 4.77785 5.61157 5.04888 5.78563 5.21399L10.3852 9.57165C10.6664 9.8378 11.1372 9.64063 11.1322 9.2588L11.0987 6.86461C14.6981 6.91621 17.6001 9.77316 17.6001 13.29C17.6001 16.8069 14.6451 19.716 11 19.716C7.3549 19.716 4.39989 16.8389 4.39989 13.29H0C0 19.2049 4.92484 23.9998 11 23.9998C17.0752 23.9998 22 19.2049 22 13.29C22 7.37517 17.0958 2.60092 11.0385 2.58028H11.0391Z" fill="white"/>
</svg>
