<svg width="30" height="20" viewBox="0 0 7 14" fill="none" xmlns="http://www.w3.org/2000/svg">
<path d="M2.51932 10.5617V9.36499C2.51932 8.74446 2.59259 8.25057 2.73913 7.88331C2.88567 7.50339 3.07729 7.18679 3.31401 6.93351C3.55072 6.68023 3.79308 6.43329 4.04106 6.19267C4.3905 5.86341 4.68921 5.52148 4.9372 5.16689C5.19646 4.79964 5.32609 4.32474 5.32609 3.7422C5.32609 3.32429 5.23591 2.95703 5.05556 2.64043C4.88647 2.32384 4.66103 2.07689 4.37923 1.89959C4.09742 1.7223 3.79308 1.63365 3.46618 1.63365C3.0942 1.63365 2.76167 1.72863 2.4686 1.91859C2.1868 2.09588 1.95008 2.3365 1.75845 2.64043C1.56683 2.9317 1.41465 3.25464 1.30193 3.60923L0 2.92537C0.078905 2.64677 0.208535 2.34283 0.388889 2.01357C0.580515 1.67164 0.822866 1.34871 1.11594 1.04478C1.40902 0.740841 1.76409 0.493895 2.18116 0.303935C2.59823 0.101312 3.07729 0 3.61836 0C4.26087 0 4.83575 0.139304 5.343 0.417911C5.85024 0.696518 6.2504 1.10176 6.54348 1.63365C6.84783 2.16554 7 2.81773 7 3.59023C7 4.1981 6.92109 4.70466 6.76329 5.10991C6.60548 5.51515 6.40258 5.86974 6.15459 6.17368C5.91788 6.47761 5.65862 6.77521 5.37681 7.06649C5.1401 7.29444 4.92029 7.52239 4.71739 7.75034C4.52577 7.96563 4.37359 8.23157 4.26087 8.54817C4.14815 8.8521 4.09179 9.25735 4.09179 9.76391V10.5617H2.51932ZM3.33092 14C3.03784 14 2.79549 13.905 2.60386 13.7151C2.41224 13.5251 2.31643 13.2782 2.31643 12.9742C2.31643 12.6956 2.41224 12.4613 2.60386 12.2714C2.79549 12.0687 3.03784 11.9674 3.33092 11.9674C3.61272 11.9674 3.8438 12.0687 4.02415 12.2714C4.21578 12.4613 4.31159 12.6956 4.31159 12.9742C4.31159 13.2782 4.21578 13.5251 4.02415 13.7151C3.8438 13.905 3.61272 14 3.33092 14Z" fill="white"/>
</svg>
