<svg width="25" height="23" viewBox="0 0 25 23" fill="none" xmlns="http://www.w3.org/2000/svg">
<path d="M16.3977 6.803H20.5927V9.46042C20.5927 9.80482 20.9385 9.97764 21.1408 9.73395L24.906 5.19745C25.0313 5.04659 25.0313 4.80165 24.906 4.65038L21.1408 0.113872C20.9385 -0.129821 20.5927 0.042588 20.5927 0.387406V2.93499H16.3977C13.4459 2.93499 10.7344 4.88703 9.33498 8.01194C7.39076 5.7814 4.78143 4.48211 2.01139 4.48211H0V8.35012H2.01139C4.26138 8.35012 6.35972 9.57895 7.74968 11.6313C6.89296 13.4254 5.30313 14.539 3.57567 14.539H0V18.407H3.57567C5.92579 18.407 8.12344 17.1699 9.62838 15.0882C11.6196 18.1281 14.6785 19.9541 17.9624 19.9541H20.5923V22.6116C20.5923 22.9564 20.9381 23.1288 21.1404 22.8851L24.9056 18.3486C25.0309 18.1977 25.0309 17.9528 24.9056 17.8015L21.1404 13.265C20.9381 13.0213 20.5923 13.1941 20.5923 13.5386V16.0861H17.9624C15.2513 16.0861 12.7606 14.3024 11.4634 11.4431L12.1359 9.90304C12.9687 7.9966 14.6097 6.80259 16.3977 6.80259V6.803Z" fill="white"/>
</svg>
