<svg width="247" height="241" viewBox="0 0 247 241" fill="none" xmlns="http://www.w3.org/2000/svg">
<path d="M0 0H56.6609V56.6609H0V0Z" fill="#26C485"/>
<path d="M0 184.297H56.6609V240.958H0V184.297Z" fill="#363636"/>
<path d="M0 61.4326H56.6609V118.094H0V61.4326Z" fill="#26C485"/>
<path d="M0 122.865H56.6609V179.525H0V122.865Z" fill="#363636"/>
<path d="M61.4324 0H115.827V56.6609H61.4324V0Z" fill="#26C485"/>
<path d="M61.4324 184.297H115.827V240.958H61.4324V184.297Z" fill="#363636"/>
<path d="M88.2107 101.863C87.87 102.175 87.3931 102.488 86.7799 102.8C86.1668 103.089 85.4854 103.353 84.736 103.594C84.0093 103.834 83.2485 104.027 82.4536 104.171C81.6815 104.315 80.9547 104.387 80.2734 104.387C78.2976 104.387 76.5149 104.063 74.9251 103.414C73.3581 102.764 72.0069 101.863 70.8713 100.709C69.7585 99.5544 68.8955 98.1958 68.2824 96.6329C67.6919 95.0699 67.3967 93.3748 67.3967 91.5473C67.3967 89.3833 67.726 87.4476 68.3846 85.7404C69.0659 84.0092 69.9856 82.5545 71.1439 81.3763C72.3248 80.174 73.6761 79.2723 75.1977 78.6712C76.7193 78.046 78.3317 77.7334 80.035 77.7334C81.4657 77.7334 82.7943 77.9138 84.0206 78.2744C85.247 78.6351 86.3257 79.092 87.2569 79.645L86.1327 82.855C85.6785 82.5665 85.1107 82.302 84.4294 82.0615C83.7708 81.8211 83.0895 81.6287 82.3855 81.4845C81.6815 81.3161 81.0229 81.232 80.4097 81.232C78.9562 81.232 77.639 81.4724 76.4581 81.9533C75.2772 82.4102 74.2665 83.0835 73.4263 83.9731C72.586 84.8388 71.9387 85.8967 71.4845 87.1471C71.0303 88.3734 70.8032 89.756 70.8032 91.2949C70.8032 92.7135 71.0303 94.012 71.4845 95.1902C71.9387 96.3684 72.586 97.3903 73.4263 98.2559C74.2665 99.0975 75.2658 99.7587 76.424 100.24C77.605 100.696 78.8994 100.925 80.3075 100.925C81.1478 100.925 81.9767 100.841 82.7943 100.672C83.6118 100.48 84.3159 100.216 84.9063 99.879V94.6852H80.0009V91.3309H88.2107V101.863Z" fill="#363636"/>
<path d="M95.6362 104.099L106.401 76.9399H106.605L117.336 104.099H113.555L105.515 82.4222L107.866 80.7992L98.8724 104.099H95.6362ZM101.938 94.2163H111.102L112.192 97.246H100.984L101.938 94.2163Z" fill="#363636"/>
<path d="M125.552 104.099V77.1924H125.586L138.496 96.5968L137.1 96.3083L149.976 77.1924H150.045V104.099H146.774V85.1273L146.979 86.8946L137.679 100.817H137.611L128.175 86.8946L128.754 85.2716V104.099H125.552Z" fill="#363636"/>
<path d="M160.699 78.022H176.71V81.3763H164.003V89.3111H175.347V92.6654H164.003V100.745H177.187V104.099H160.699V78.022Z" fill="#363636"/>
<path d="M108.55 122.696C108.55 121.767 108.729 120.894 109.085 120.077C109.455 119.248 109.964 118.517 110.614 117.886C111.264 117.242 112.009 116.741 112.85 116.382C113.703 116.01 114.62 115.824 115.601 115.824C116.569 115.824 117.474 116.01 118.315 116.382C119.168 116.741 119.92 117.242 120.569 117.886C121.232 118.517 121.748 119.248 122.117 120.077C122.487 120.894 122.671 121.767 122.671 122.696C122.671 123.649 122.487 124.54 122.117 125.37C121.748 126.199 121.232 126.93 120.569 127.561C119.92 128.18 119.168 128.669 118.315 129.028C117.474 129.375 116.569 129.548 115.601 129.548C114.62 129.548 113.703 129.375 112.85 129.028C112.009 128.682 111.264 128.199 110.614 127.58C109.964 126.961 109.455 126.236 109.085 125.407C108.729 124.577 108.55 123.674 108.55 122.696ZM110.461 122.714C110.461 123.42 110.595 124.082 110.862 124.701C111.13 125.308 111.499 125.846 111.971 126.317C112.442 126.787 112.99 127.159 113.614 127.431C114.238 127.691 114.913 127.821 115.639 127.821C116.353 127.821 117.022 127.691 117.646 127.431C118.27 127.159 118.811 126.787 119.27 126.317C119.729 125.846 120.092 125.308 120.359 124.701C120.627 124.082 120.76 123.414 120.76 122.696C120.76 121.99 120.627 121.328 120.359 120.709C120.092 120.077 119.722 119.526 119.251 119.056C118.78 118.585 118.232 118.22 117.608 117.96C116.983 117.688 116.315 117.552 115.601 117.552C114.875 117.552 114.2 117.688 113.576 117.96C112.952 118.232 112.404 118.604 111.932 119.074C111.461 119.545 111.098 120.096 110.843 120.727C110.589 121.346 110.461 122.009 110.461 122.714Z" fill="#363636"/>
<path d="M127.8 115.973H135.998V117.7H129.654V121.99H135.214V123.698H129.654V129.4H127.8V115.973Z" fill="#363636"/>
<path d="M79.9217 138.698H83.4683V160.622H96.8869V163.858H79.9217V138.698Z" fill="#363636"/>
<path d="M106.506 138.698H110.052V163.858H106.506V138.698Z" fill="#363636"/>
<path d="M121.485 138.698H137.171V141.934H125.032V149.973H135.671V153.175H125.032V163.858H121.485V138.698Z" fill="#363636"/>
<path d="M146.855 138.698H164.04V141.934H150.402V149.59H162.577V152.827H150.402V160.622H164.551V163.858H146.855V138.698Z" fill="#363636"/>
<path fill-rule="evenodd" clip-rule="evenodd" d="M175.126 120.398H147.678V118.609H175.126V120.398Z" fill="#363636"/>
<path fill-rule="evenodd" clip-rule="evenodd" d="M97.3576 120.398L74.4847 120.398L74.4847 118.609L97.3576 118.609L97.3576 120.398Z" fill="#363636"/>
<path d="M121.075 0H182.663V56.6609H121.075V0Z" fill="#363636"/>
<path d="M121.075 184.297H182.663V240.958H121.075V184.297Z" fill="#26C485"/>
<path d="M187.876 0H247V56.6609H187.876V0Z" fill="#363636"/>
<path d="M187.876 184.297H247V240.958H187.876V184.297Z" fill="#26C485"/>
<path d="M187.876 61.4326H247V118.094H187.876V61.4326Z" fill="#363636"/>
<path d="M187.876 122.865H247V179.525H187.876V122.865Z" fill="#26C485"/>
</svg>
